Coordinates
version=1
nRows=43
nColumns=12
inDegrees=yes

Units are S.I. units (second, meters, Newtons, ...)
Angles are in degrees

endheader
time	SC_y	SC_z	SC_x	AC_y	AC_z	AC_x	GH_y	GH_z	GH_yy	EL_x	PS_y
       0.0              -21.79          10.73          14.66          54.73         0.8867          3.097          100.0          76.35          60.65          119.6          23.68
   0.04987              -21.79          10.73          14.66          54.73         0.8854          3.097          100.0          76.35          60.62          119.6          23.68
   0.09974              -21.79          10.73          14.67          54.73          0.884          3.097          100.0          76.34          60.58          119.6          23.68
    0.1496              -21.79          10.74          14.67          54.73         0.8825          3.097          99.97          76.33          60.55          119.6          23.68
    0.1995               -21.8          10.74          14.67          54.73         0.8809          3.097          99.95          76.32          60.51          119.6          23.69
    0.2493               -21.8          10.74          14.68          54.73         0.8792          3.097          99.92          76.31          60.47          119.6          23.69
    0.2992              -21.81          10.74          14.68          54.73         0.8773          3.096          99.89           76.3          60.42          119.6          23.69
    0.3491              -21.81          10.74          14.69          54.73         0.8754          3.096          99.86          76.29          60.38          119.6          23.69
    0.3989              -21.81          10.74          14.69          54.73         0.8733          3.096          99.83          76.27          60.33          119.6           23.7
    0.4488              -21.82          10.74          14.69          54.73          0.871          3.096          99.79          76.26          60.27          119.6           23.7
    0.4987              -21.82          10.74           14.7          54.73         0.8686          3.096          99.76          76.25          60.21          119.6           23.7
    0.5485              -21.83          10.74          14.71          54.74          0.866          3.096          99.72          76.23          60.15          119.6          23.71
    0.5984              -21.83          10.74          14.71          54.74         0.8632          3.096          99.67          76.21          60.08          119.6          23.71
    0.6483              -21.84          10.74          14.72          54.74         0.8602          3.096          99.63           76.2          60.01          119.6          23.72
    0.6981              -21.85          10.74          14.72          54.74         0.8569          3.095          99.57          76.18          59.93          119.5          23.72
     0.748              -21.85          10.75          14.73          54.74         0.8534          3.095          99.52          76.16          59.84          119.5          23.73
    0.7979              -21.86          10.75          14.74          54.74         0.8495          3.095          99.46          76.13          59.75          119.5          23.73
    0.8478              -21.87          10.75          14.75          54.74         0.8453          3.095          99.39          76.11          59.65          119.5          23.74
    0.8976              -21.88          10.75          14.76          54.74         0.8407          3.095          99.32          76.08          59.54          119.5          23.74
    0.9475              -21.89          10.75          14.77          54.74         0.8357          3.095          99.24          76.05          59.42          119.5          23.75
    0.9974               -21.9          10.75          14.78          54.74         0.8302          3.094          99.16          76.02          59.28          119.5          23.76
     1.047              -21.91          10.76           14.8          54.74         0.8241          3.094          99.06          75.98          59.14          119.5          23.77
     1.097              -21.93          10.76          14.81          54.74         0.8174          3.094          98.96          75.94          58.97          119.4          23.78
     1.147              -21.94          10.76          14.83          54.74           0.81          3.093          98.84           75.9          58.79          119.4          23.79
     1.197              -21.96          10.76          14.84          54.74         0.8018          3.093          98.71          75.85          58.59          119.4           23.8
     1.247              -21.98          10.77          14.86          54.75         0.7925          3.093          98.57          75.79          58.37          119.4          23.81
     1.297               -22.0          10.77          14.89          54.75         0.7822          3.092          98.41          75.73          58.12          119.3          23.83
     1.346              -22.02          10.77          14.91          54.75         0.7706          3.092          98.23          75.66          57.84          119.3          23.85
     1.396              -22.05          10.78          14.94          54.75         0.7575          3.091          98.02          75.59          57.52          119.3          23.86
     1.446              -22.08          10.78          14.97          54.75         0.7426           3.09          97.79           75.5          57.16          119.2          23.89
     1.496              -22.11          10.79          15.01          54.75         0.7256          3.089          97.53           75.4          56.75          119.2          23.91
     1.546              -22.15           10.8          15.05          54.76         0.7061          3.089          97.22          75.28          56.28          119.1          23.94
     1.596              -22.19          10.81           15.1          54.76         0.6836          3.088          96.87          75.15          55.74          119.1          23.97
     1.646              -22.25          10.82          15.16          54.76         0.6574          3.086          96.46          74.99           55.1          119.0          24.01
     1.696              -22.31          10.83          15.22          54.77         0.6268          3.085          95.99          74.81          54.36          118.9          24.05
     1.745              -22.38          10.84           15.3          54.77         0.5907          3.083          95.43           74.6          53.49          118.8          24.11
     1.795              -22.47          10.85          15.39          54.78         0.5478          3.081          94.76          74.34          52.45          118.7          24.17
     1.845              -22.57          10.87           15.5          54.79         0.4964          3.079          93.96          74.04           51.2          118.5          24.24
     1.895              -22.69          10.89          15.64          54.79         0.4342          3.076          92.99          73.67           49.7          118.4          24.33
     1.945              -22.85          10.92           15.8           54.8         0.3582          3.073           91.8          73.22          47.86          118.1          24.44
     1.995              -23.04          10.95          16.01          54.82         0.2644          3.068          90.34          72.66          45.59          117.9          24.58
     2.045              -23.27           11.0          16.26          54.83         0.1474          3.063          88.52          71.96          42.76          117.6          24.75
     2.094              -23.57          11.05          16.58          54.85      7.989e-05          3.056          86.22          71.09          39.19          117.1          24.96
